<?xml version="1.0" encoding="utf-8"?>
<!-- Generator: Adobe Illustrator 19.0.0, SVG Export Plug-In . SVG Version: 6.00 Build 0)  -->
<svg version="1.1" id="图形" xmlns="http://www.w3.org/2000/svg" xmlns:xlink="http://www.w3.org/1999/xlink" x="0px" y="0px"
	 viewBox="119 262.9 834 316" style="enable-background:new 119 262.9 834 316;" xml:space="preserve">
<style type="text/css">
	.st0{fill:#040100;}
</style>
<g id="XMLID_65_">
	<path id="XMLID_87_" class="st0" d="M210,473.2c2.3-42.9,4.6-86,6.9-129.2c-20.4,0.6-40.9,1.5-61.4,2.8c-6.1,0.5-12.3,1-18.4,1.5
		c2.8,2.4,5.5,4.9,8.3,7.3c0.9,42.7,1.9,85.6,2.8,128.6c8.1-4.3,16.2-8.9,24.4-13.5c-4-32.7-7.9-65-11.9-97
		c12.6-2.5,25.3-5.1,37.9-7.6c0.1,32.6,0.2,65.2,0.3,97.8c-12.4,8.4-24.7,16.5-37.1,24.2C177.8,483.6,193.9,478.6,210,473.2z"/>
	<path id="XMLID_83_" class="st0" d="M250.8,409.9c-0.9-20.4-1.7-40.8-2.6-61.2c17-2.8,34-5.5,50.9-8c-1.3,13-2.5,26.1-3.8,39.1
		c-5.4-9.5-10.9-19-16.3-28.5c-8.1,7-16.3,14-24.4,21c13.4,4.1,26.8,8.3,40.2,12.5c-0.6,6.3-1.2,12.6-1.8,18.9
		C279,405.8,264.9,407.8,250.8,409.9L250.8,409.9z M359.3,355.1c-8.3-3.1-16.6-6.1-24.9-9.2c-2.4,12.5-4.8,24.9-7.2,37.4
		c10.8-8,21.5-16,32.3-23.8c0.5,11.5,1,23,1.5,34.4c-14.3,2-28.6,4-42.8,6.1c4.2-21.3,8.5-42.6,12.7-63.9c9.2-1.3,18.3-2.5,27.5-3.6
		C358.7,340.1,359,347.6,359.3,355.1L359.3,355.1z M310,503.9c26.2-8.8,52.4-17.9,78.6-27c-26.2,4.4-52.4,8.8-78.6,12.8
		c0-10.8,0-21.7,0-32.5c18.2-2.9,36.5-5.9,54.7-9c-18.2-1.8-36.5-3.7-54.7-5.7c0-0.6,0-1.3,0-1.9c1.4-7,2.8-14,4.2-21
		c17.8,0.4,35.6,0.8,53.4,1.2c5.2-34.9,10.4-69.7,15.6-104.3c0.1-9.7,0.2-19.3,0.3-29c-4.3,5.4-8.7,10.8-13,16.2
		c-44.7,1-89.3,3.2-133.9,7.3c2.1,5.6,4.3,11.2,6.4,16.8c0.3,28.9,0.6,57.8,0.9,86.8c-0.1,1.2-0.1,2.5-0.2,3.7
		c1.2-0.1,2.5-0.1,3.7-0.2c14.7,0.4,29.4,0.7,44.1,1c-0.7,7-1.4,14.1-2.1,21.2c-12.5-1.4-25-2.7-37.5-4.2
		c-5.6,10.9-11.3,21.7-16.9,32.5c20.1-2.8,40.3-5.8,60.4-9c3.3,10.3,6.6,20.6,9.8,30.8c-43.1,6.6-86.2,12.1-129.3,15.1
		c9,10,18,20.2,27,30.4c35.6-8.9,71.1-20,106.7-31.9c0.1,0.4,0.2,0.7,0.4,1.1C310,504.7,310,504.3,310,503.9z"/>
	<path id="XMLID_82_" class="st0" d="M242.6,560.9c1.4-8.2,2.8-16.4,4.2-24.7c-13.2,7.8-26.3,15.2-39.5,22.2
		C219.1,559.5,230.8,560.3,242.6,560.9z"/>
	<path id="XMLID_81_" class="st0" d="M285.1,561.6c0.9-14.5,1.8-29,2.7-43.6c-9.5,16.3-19,32.6-28.4,48.6
		C267.9,565,276.5,563.3,285.1,561.6z"/>
	<path id="XMLID_80_" class="st0" d="M302.6,554.5c9.8-1,19.6-2.1,29.4-3.4c-7.4-11.2-14.7-22.5-22.1-33.9
		C307.5,529.7,305,542.1,302.6,554.5z"/>
	<path id="XMLID_79_" class="st0" d="M356.8,562.6c11.4-7.1,22.8-14.3,34.1-21.5c-18.3-8.2-36.7-16.8-55-25.8
		C342.9,531.2,349.8,546.9,356.8,562.6z"/>
	<path id="XMLID_78_" class="st0" d="M220.4,362.7c2.2-10,4.4-19.9,6.6-29.9c-12.5,2.1-25.1,4.3-37.6,6.6
		c10.9-0.1,21.8-0.1,32.7-0.1C221.6,347.1,221,354.9,220.4,362.7z"/>
	<path id="XMLID_77_" class="st0" d="M410.5,489c0-4.9,0-9.9,0-14.8c-24.8,11.8-49.7,23.9-74.5,35.7
		C360.8,503.1,385.6,496,410.5,489z"/>
	<path id="XMLID_76_" class="st0" d="M437.2,310.1c-8.3,9.6-16.5,19.2-24.8,29.1c17.1,8.7,34.2,17.2,51.3,25.6
		C454.9,346.8,446.1,328.6,437.2,310.1z"/>
	<path id="XMLID_75_" class="st0" d="M461,409.5c0.2-4.6,0.4-9.1,0.6-13.7c-5.1,0-10.3,0.1-15.4,0.2c-14,0.2-27.9,0.3-41.9,0.5
		c-2.3-3.2-4.6-6.4-6.9-9.6c0.4,6.5,0.8,13,1.3,19.5c-1.8,9.9-3.7,19.8-5.5,29.7c16.7-5.9,33.3-11.7,50-17.4
		c-9.3,45.7-18.5,92-27.8,138.7c23.3-17.4,46.5-34.7,69.8-51.4c-14.2,4.1-28.3,8.2-42.5,12.3C448.8,481.8,454.9,445.5,461,409.5z"/>
	<path id="XMLID_74_" class="st0" d="M473.2,385.7c-10.9,1.6-21.9,3.2-32.8,4.8c9.2-0.2,18.5-0.5,27.7-0.7
		c-0.2,10.6-0.4,21.3-0.6,31.9C469.4,409.7,471.3,397.7,473.2,385.7z"/>
	<path id="XMLID_73_" class="st0" d="M684.3,310.8c-9,9-18,18.1-26.9,27.2c16.8,6.8,33.6,13.3,50.5,19.6
		c-7.4-12.2-14.9-24.6-22.3-37C685.2,317.4,684.7,314.1,684.3,310.8z"/>
	<path id="XMLID_72_" class="st0" d="M667.8,542.3c11.8-28.8,23.6-57.1,35.4-85c-22.1,22.1-44.2,44.9-66.3,68.7
		C647.3,531.4,657.6,536.9,667.8,542.3z"/>
	<path id="XMLID_71_" class="st0" d="M738.2,512.4c6.2-51.4,12.4-102.6,18.6-153.8c40.9,5.7,84.5,11.8,125.4,16.2
		c3.5-14.6,12-45.9,12-45.9s-162.5,5.5-166.9,5.2c-0.2,3.8-0.5,7.5-0.7,11.3c-2.6,65.2-5.2,130.5-7.7,195.8
		c54.6-13,109.2-22.8,163.8-30.4C834.5,508.9,786.4,509.8,738.2,512.4z"/>
	<path id="XMLID_70_" class="st0" d="M900.1,532.7c0.3-6.1,0.7-12.2,1-18.4c-24,4.6-48,9.6-71.9,15
		C852.8,529.7,876.5,530.8,900.1,532.7z"/>
	<path id="XMLID_69_" class="st0" d="M579.4,506.8c14.4-10.3,28.9-20.4,43.3-30.2c6.7-14,13.5-27.8,20.2-41.5
		c-52.1-3.2-104.3-6.6-156.4-10.4c1.6,12.8,3.2,25.6,4.8,38.4c35.1-3.5,70.1-7,105.2-10.2c-11.9,13.2-23.9,26.8-35.8,40.5
		c-8.6-6.2-17.2-12.5-25.8-18.9c-10.4,6.4-20.8,13-31.1,19.6c13.9,5.9,27.7,11.5,41.6,17.1c-15.2,17.8-30.3,36.1-45.5,54.9
		c21.2-16.5,42.3-32.4,63.5-47.8c24.2,9.5,48.4,18.5,72.7,27.4C617.2,533.1,598.3,520.2,579.4,506.8z"/>
	<path id="XMLID_68_" class="st0" d="M601,400c0.2-26.7,0.4-53.4,0.5-80.1l0,0c-27.2-3.8-54.5-7.9-81.8-12.1
		c-6.6-4.7-13.3-9.5-19.9-14.3c4.2,8.8,8.4,17.5,12.6,26.1c0,1.1,0,2.2-0.1,3.4c-8.6,27.5-17.3,55.5-25.9,83.9
		c9.9-4.2,19.8-8.4,29.7-12.4c6-18.8,12.1-37.3,18.1-55.7c0.2,0,0.4,0,0.6,0c0-0.1,0-0.1,0-0.2c16.1,1.5,32.3,3,48.4,4.4
		c-2.2,22-4.4,44-6.7,66.1c42.2,3.3,84.4,6.2,126.6,9.1c-5.6-9.7-11.1-19.5-16.7-29.4C658,392.6,629.5,396.2,601,400z"/>
	<path id="XMLID_67_" class="st0" d="M609.4,344.4c3.3-13.5,6.6-27,9.9-40.4c0,0-54.4-0.2-55.1-0.3c14.5,2.2,28.9,4.4,43.3,6.4
		C608.2,321.6,608.8,333,609.4,344.4z"/>
	<polygon id="XMLID_66_" class="st0" points="887.7,392.9 934.9,302.2 907.6,302.3 911.1,271.5 883,319.3 906.3,317.9 	"/>
</g>
</svg>
