<?xml version="1.0" encoding="utf-8"?>
<!DOCTYPE svg PUBLIC "-//W3C//DTD SVG 1.1//EN" "http://www.w3.org/Graphics/SVG/1.1/DTD/svg11.dtd">
<svg version="1.1" id="图形" xmlns="http://www.w3.org/2000/svg" xmlns:xlink="http://www.w3.org/1999/xlink" x="0px" y="0px" width="1024px" height="1024px" viewBox="0 0 1024 1024" enable-background="new 0 0 1024 1024" xml:space="preserve">
  <path fill="#272636" d="M742.794 298.319c-37.303 7.258-19.153 27.395-19.153 27.395s36.499 60.337-7.226 104.204c-54.22 54.329-185.941-6.912-185.941-6.912-50.319-15.652-36.959 7.143-29.848 45.936 0 45.706-15.627 123.061-149.64 77.37-133.871-45.937-248.847-206.886-248.847-206.886-79.939-106.951-69.33-189.609-69.33-189.609 19.955-182.479 213.35-232.571 363.765-244.427 158.243-12.447 371.851 54.69 436.594 192.613 64.77 138.152-52.928 192.829-90.374 200.316zM408.303-43.155c-157.125-7.359-284.115 71.62-284.115 176.731 0 105.224 126.99 189.609 284.115 196.868 157.183 7.258 284.429-57.68 284.429-162.687 0-105.097-127.247-203.754-284.429-210.912zM376.934 261.136c-157.983-18.541-139.748-166.927-139.748-166.927s-1.606-46.986 42.378-70.918c92.439-50.205 187.631-19.805 235.743 42.459 48.112 62.294 19.898 213.798-138.374 195.386zM337.081 52.871c-29.475-3.465-53.273 13.582-53.273 38.333 0 24.636 21.131 50.435 50.635 53.526 33.89 3.233 55.969-16.343 55.969-41.093 0-24.636-23.913-47.417-53.331-50.766zM430.236 132.426c-10.006-7.488-22.278-6.453-27.555 2.532-5.504 8.751-3.44 22.795 6.653 30.167 11.697 8.741 23.883 6.223 29.159-2.543 5.305-8.969 1.521-22.437-8.257-30.156zM819.752 362.567c12.729 0 23.567 9.443 25.374 21.761 0.23 0.92 0.345 1.724 0.345 2.76 19.296 173.957-142.187 144.017-142.187 144.017-14.335 0-25.806-11.628-25.806-26.13 0-14.273 11.47-25.901 25.806-25.901 116.009 25.671 90.406-90.608 90.406-90.608-0.001-14.387 11.668-25.899 26.063-25.899zM800.941 666.197c-55.855 13.109-113.255 1.811-129.341-1.279-1.233-0.116-2.41-1.294-3.556-1.524-0.545-0.116-0.889-0.69-0.889-0.69-15.886-4.499-27.47-19.217-27.47-36.609 0-20.726 16.745-37.772 37.676-37.772 0 0 20.3 2.73 34.090 8.135 13.676 5.52 129.283 4.111 186.743-92.591 31.311-70.571 13.762-117.801 11.584-125.39 0 0-7.455-18.341-7.455-36.392 0-20.843 16.744-33.936 37.502-33.936 17.376 0 31.941 2.373 36.214 31.807h0.23c61.677 206.052-75.436 302.87-175.329 326.239z" transform="translate(0, 812) scale(1, -1)"/>
</svg>
