<?xml version="1.0" encoding="utf-8"?>
<!-- Generator: Adobe Illustrator 19.0.0, SVG Export Plug-In . SVG Version: 6.00 Build 0)  -->
<svg version="1.1" id="图层_1" xmlns="http://www.w3.org/2000/svg" xmlns:xlink="http://www.w3.org/1999/xlink" x="0px" y="0px"
	 viewBox="-121 359.6 352.7 122.3" style="enable-background:new -121 359.6 352.7 122.3;" xml:space="preserve">
<style type="text/css">
	.st0{fill:#9FA0A0;}
</style>
<g id="XMLID_81_">
	<g id="XMLID_121_">
		<g>
			<path id="XMLID_123_" class="st0" d="M-55.5,433.6l-7.1-5.5c-1.6-1.2-4.2-1.2-5.8,0l-22.4,17c-1.6,1.2-2.9,3.9-2.9,5.9v12.7
				c0,2,1.3,2.6,2.9,1.4l35.3-27C-53.9,436.8-53.9,434.8-55.5,433.6z M-6.2,379.2l-35.4,27.1c-1.6,1.2-1.6,3.2,0,4.5l7.1,5.5
				c1.6,1.2,4.2,1.2,5.8,0l22.6-17c1.6-1.2,2.9-3.9,2.9-5.9v-12.7C-3.4,378.6-4.7,378-6.2,379.2z M-4.4,404.9
				c-0.2,0-0.4,0.1-0.6,0.2l-0.1,0.1l-13.7,10.6l-0.1,0.1c-0.2,0.2-0.4,0.5-0.4,0.8v12.6c0,3.2-2.1,4.2-4.6,2.2l-65.2-50.9
				c-2.5-2-4.6-1-4.6,2.2v55.6c0,0.6,0.4,1,1,1c0.2,0,0.4-0.1,0.6-0.2l0.1-0.1l13.7-10.6l0.1-0.1c0.2-0.2,0.4-0.5,0.4-0.8v-12.5
				c0-3.2,2.1-4.2,4.6-2.2l65.3,50.9c2.5,2,4.6,1,4.6-2.2v-55.7C-3.4,405.4-3.8,404.9-4.4,404.9z"/>
		</g>
	</g>
	<g id="XMLID_82_">
		<g id="XMLID_109_">
			<path id="XMLID_118_" class="st0" d="M30.8,411.2l-8.3-17.6c0.9-0.1,1.7-0.2,2.5-0.2s1.7-0.1,2.5-0.1c1.5,0,3.2,0.1,4.8,0.3
				l7.4,17.7l-9.2,19.2c-1.1,0.1-2,0.2-2.7,0.3c-0.8,0.1-1.5,0.1-2.2,0.1c-0.8,0-1.5,0-2.3-0.1c-0.8-0.1-1.6-0.1-2.6-0.2L30.8,411.2
				z M40.1,411.3l7.2-17.7c1.7-0.2,3.3-0.3,4.8-0.3c0.8,0,1.6,0,2.5,0.1c0.8,0,1.7,0.1,2.5,0.2l-8.2,17.6l10.2,19.4
				c-1,0.1-1.9,0.2-2.6,0.2c-0.8,0.1-1.5,0.1-2.3,0.1c-0.7,0-1.5,0-2.2-0.1c-0.8-0.1-1.7-0.1-2.7-0.3L40.1,411.3z"/>
			<path id="XMLID_116_" class="st0" d="M64.6,393.5c0.8-0.1,1.6-0.2,2.4-0.2c0.8,0,1.6-0.1,2.4-0.1c0.7,0,1.5,0,2.3,0.1
				c0.8,0,1.6,0.1,2.4,0.2v19.2c0,2.1,0.1,3.9,0.3,5.4s0.6,2.7,1.2,3.7c0.6,1,1.4,1.7,2.5,2.2s2.4,0.7,4.1,0.7c1.7,0,3-0.2,4.1-0.7
				c1-0.5,1.8-1.2,2.4-2.2c0.6-1,1-2.2,1.2-3.7s0.3-3.3,0.3-5.4v-19.2c0.9-0.1,1.7-0.2,2.5-0.2s1.5-0.1,2.3-0.1s1.6,0,2.4,0.1
				c0.8,0,1.6,0.1,2.4,0.2v20.8c0,2.5-0.3,4.8-0.8,6.9c-0.5,2.1-1.4,3.9-2.8,5.3c-1.3,1.5-3.1,2.6-5.4,3.4c-2.2,0.8-5.1,1.2-8.5,1.2
				s-6.3-0.4-8.5-1.2s-4-1.9-5.4-3.4c-1.3-1.5-2.3-3.3-2.8-5.3c-0.5-2.1-0.8-4.4-0.8-6.9v-20.8H64.6z"/>
			<path id="XMLID_114_" class="st0" d="M108.1,393.5c1.3-0.2,2.6-0.3,3.8-0.3c1.3,0,2.6,0.1,4,0.3l17.9,23.6v-23.6
				c1.5-0.2,3-0.3,4.5-0.3c1.3,0,2.6,0.1,3.9,0.3v37.1c-1.4,0.2-2.6,0.3-3.7,0.3c-1.2,0-2.5-0.1-3.9-0.3L116.5,407v23.6
				c-1.4,0.2-2.8,0.3-4.2,0.3s-2.8-0.1-4.1-0.3L108.1,393.5L108.1,393.5z"/>
			<path id="XMLID_112_" class="st0" d="M151.3,393.5c1.6-0.2,3.2-0.3,4.7-0.3s3.1,0.1,4.8,0.3v37.1c-1.6,0.2-3.2,0.3-4.7,0.3
				c-1.6,0-3.2-0.1-4.8-0.3V393.5z"/>
			<path id="XMLID_110_" class="st0" d="M169.5,393.5c0.8-0.1,1.6-0.2,2.4-0.2s1.6-0.1,2.4-0.1c0.7,0,1.5,0,2.3,0.1
				c0.8,0,1.6,0.1,2.4,0.2v19.2c0,2.1,0.1,3.9,0.3,5.4c0.2,1.5,0.6,2.7,1.2,3.7s1.4,1.7,2.5,2.2s2.4,0.7,4.1,0.7s3-0.2,4.1-0.7
				c1-0.5,1.8-1.2,2.4-2.2s1-2.2,1.2-3.7s0.3-3.3,0.3-5.4v-19.2c0.9-0.1,1.7-0.2,2.5-0.2s1.5-0.1,2.3-0.1s1.6,0,2.4,0.1
				c0.8,0,1.6,0.1,2.4,0.2v20.8c0,2.5-0.3,4.8-0.8,6.9c-0.5,2.1-1.4,3.9-2.8,5.3c-1.3,1.5-3.1,2.6-5.4,3.4c-2.2,0.8-5.1,1.2-8.5,1.2
				s-6.3-0.4-8.5-1.2s-4-1.9-5.4-3.4c-1.3-1.5-2.3-3.3-2.8-5.3c-0.5-2.1-0.8-4.4-0.8-6.9v-20.8H169.5z"/>
		</g>
		<g id="XMLID_92_">
			<path id="XMLID_104_" class="st0" d="M29.7,455.6c0.4,0.1,0.8,0.5,1.5,0.9c1.1,0.6,2.5,0.8,4.4,0.8c2,0,4.6-0.1,6.3-0.3
				c-0.2,0.4-0.4,1-0.4,1.3c-1.3,0.1-4.3,0.2-6,0.2c-2,0-3.4-0.2-4.6-0.9c-0.7-0.4-1.2-0.9-1.6-0.9c-0.6,0-1.6,0.9-2.6,2l-0.9-1.1
				c0.9-0.8,1.7-1.5,2.5-1.8v-5.2h-2.6v-1.2h3.8v6.2H29.7z M28.9,447c-0.5-0.9-1.7-2.1-2.7-3l1-0.7c1,0.8,2.3,2,2.8,2.9L28.9,447z
				 M33.6,450.4h-3.1v-1.2h3.1v-3.8h1.3v3.8h2.9v1.2h-2.9v5.9h-1.3V450.4z M39.6,443.6c0,6.4,0,11.1,1.1,11.1c0.2,0,0.3-1,0.4-2.3
				c0.2,0.3,0.5,0.7,0.8,0.9c-0.2,2-0.4,2.7-1.3,2.7c-2.1,0-2.2-4.3-2.2-11.2h-7.5v-1.2H39.6z"/>
			<path id="XMLID_102_" class="st0" d="M94.7,452.6h-6.9v6.1h-1.3v-6.1h-7.3v-1.3h7.3v-4.1h-4.3c-0.5,1.1-1.2,2.1-1.8,2.9
				c-0.3-0.2-0.9-0.5-1.2-0.7c1.4-1.5,2.5-3.8,3.1-6.2l1.3,0.3c-0.2,0.8-0.5,1.7-0.9,2.4h3.7v-3.2h1.3v3.2h6v1.3h-6v4.1h6.9
				L94.7,452.6L94.7,452.6z"/>
			<path id="XMLID_97_" class="st0" d="M137.8,453.2c-0.3-0.6-1-1.7-1.6-2.6v8.1h-1.3V451c-0.7,1.7-1.6,3.5-2.5,4.6
				c-0.1-0.3-0.4-0.9-0.6-1.2c1.1-1.2,2.3-3.5,3-5.5H132v-1.3h2.9V445c-0.8,0.2-1.6,0.3-2.4,0.4c-0.1-0.3-0.2-0.7-0.4-1
				c2-0.3,4.2-0.8,5.6-1.4l0.8,1c-0.6,0.3-1.5,0.5-2.3,0.7v2.9h2.6v1.2h-2.6v0.3c0.5,0.6,2,2.5,2.4,3L137.8,453.2z M145.7,454.1v4.6
				h-1.3v-4.4l-5.7,0.9l-0.2-1.2l5.9-0.9v-10.4h1.3v10.1l2-0.3l0.2,1.2L145.7,454.1z M142.4,451.8c-0.6-0.8-2-1.8-3.1-2.5l0.8-0.8
				c1.1,0.7,2.5,1.7,3.1,2.5L142.4,451.8z M142.7,447.2c-0.5-0.7-1.7-1.8-2.8-2.5l0.8-0.8c1,0.7,2.3,1.7,2.8,2.4L142.7,447.2z"/>
			<path id="XMLID_93_" class="st0" d="M190.8,451.5c-0.7,0.2-1.4,0.4-2.1,0.6v4.9c0,0.7-0.2,1.1-0.6,1.3c-0.4,0.2-1.2,0.2-2.4,0.2
				c-0.1-0.3-0.2-0.8-0.4-1.2c0.8,0,1.6,0,1.8,0c0.3,0,0.4-0.1,0.4-0.3v-4.4l-2.1,0.6l-0.4-1.3c0.7-0.2,1.5-0.4,2.5-0.6v-3.8h-2.2
				v-1.2h2.2v-3.5h1.3v3.5h1.9v1.2h-1.9v3.5c0.6-0.2,1.3-0.4,1.9-0.6L190.8,451.5z M200.1,449.6c-0.7,2.4-2,4.3-3.5,5.7
				c1.3,1,2.8,1.8,4.5,2.3c-0.3,0.3-0.6,0.8-0.8,1.1c-1.8-0.6-3.4-1.4-4.7-2.5c-1.5,1.1-3.2,1.9-5,2.5c-0.1-0.4-0.5-0.9-0.7-1.2
				c1.7-0.5,3.3-1.2,4.7-2.2c-1.2-1.3-2.2-2.9-2.9-4.8h0.1h-0.6v-1.2h3.7v-2.6h-4.1v-1.2h4.1v-2.7h1.3v2.7h4.2v1.2h-4.2v2.6h2.8
				l0.2-0.1L200.1,449.6z M193,450.5c0.6,1.5,1.5,2.9,2.6,4c1.2-1.1,2.2-2.4,2.8-4H193z"/>
		</g>
		<g id="XMLID_89_">
			<g id="XMLID_90_">
				<rect id="XMLID_3_" x="60.6" y="444.5" class="st0" width="0.3" height="13.9"/>
			</g>
		</g>
		<g id="XMLID_86_">
			<g id="XMLID_87_">
				<rect id="XMLID_2_" x="111.7" y="444.5" class="st0" width="0.3" height="13.9"/>
			</g>
		</g>
		<g id="XMLID_83_">
			<g id="XMLID_84_">
				<rect id="XMLID_1_" x="166.9" y="444.5" class="st0" width="0.3" height="13.9"/>
			</g>
		</g>
	</g>
</g>
</svg>
