<?xml version="1.0" encoding="utf-8"?>
<!-- Generator: Adobe Illustrator 19.0.0, SVG Export Plug-In . SVG Version: 6.00 Build 0)  -->
<svg version="1.1" id="图层_1" xmlns="http://www.w3.org/2000/svg" xmlns:xlink="http://www.w3.org/1999/xlink" x="0px" y="0px"
	 viewBox="0 0 54 54" style="enable-background:new 0 0 54 54;" xml:space="preserve">
<style type="text/css">
	.st0{opacity:0.15;}
	.st1{fill:#040000;}
	.st2{opacity:0.45;}
	.st3{opacity:0;}
	.st4{opacity:0.3;}
	.st5{opacity:0.1;}
	.st6{opacity:0.4;}
	.st7{opacity:0.55;}
	.st8{opacity:0.25;}
	.st9{opacity:5.000000e-02;}
	.st10{opacity:0.35;}
	.st11{opacity:0.5;}
	.st12{opacity:0.2;}
</style>
<g id="XMLID_39_">
	<g id="XMLID_73_" class="st0">
		<path id="XMLID_31_" class="st1" d="M29,12.5c0,1.1-0.9,2-2,2l0,0c-1.1,0-2-0.9-2-2v-10c0-1.1,0.9-2,2-2l0,0c1.1,0,2,0.9,2,2V12.5
			z"/>
	</g>
	<g id="XMLID_70_" class="st2">
		<path id="XMLID_32_" class="st1" d="M29,51.5c0,1.1-0.9,2-2,2l0,0c-1.1,0-2-0.9-2-2v-10c0-1.1,0.9-2,2-2l0,0c1.1,0,2,0.9,2,2V51.5
			z"/>
	</g>
	<g id="XMLID_67_" class="st3">
		<path id="XMLID_27_" class="st1" d="M12.5,25c1.1,0,2,0.9,2,2l0,0c0,1.1-0.9,2-2,2h-10c-1.1,0-2-0.9-2-2s0.9-2,2-2H12.5z"/>
	</g>
	<g id="XMLID_64_" class="st4">
		<path id="XMLID_28_" class="st1" d="M51.5,25c1.1,0,2,0.9,2,2l0,0c0,1.1-0.9,2-2,2h-10c-1.1,0-2-0.9-2-2s0.9-2,2-2H51.5z"/>
	</g>
	<g id="XMLID_61_" class="st5">
		<path id="XMLID_23_" class="st1" d="M21.5,13.4c0.6,1,0.2,2.2-0.7,2.7c-1,0.5-2.2,0.2-2.7-0.7l-5-8.7c-0.6-1-0.2-2.2,0.7-2.7
			s2.2-0.2,2.7,0.7L21.5,13.4z"/>
	</g>
	<g id="XMLID_58_" class="st6">
		<path id="XMLID_24_" class="st1" d="M41,47.2c0.5,1,0.2,2.2-0.7,2.7l0,0c-1,0.5-2.2,0.2-2.7-0.7l-5-8.7c-0.5-1-0.2-2.2,0.7-2.7
			l0,0c1-0.5,2.2-0.2,2.7,0.7L41,47.2z"/>
	</g>
	<g id="XMLID_55_" class="st7">
		<path id="XMLID_19_" class="st1" d="M13.4,32.5c1-0.5,2.2-0.2,2.7,0.7l0,0c0.5,1,0.2,2.2-0.7,2.7l-8.7,5c-1,0.5-2.2,0.2-2.7-0.7
			l0,0c-0.5-1-0.2-2.2,0.7-2.7L13.4,32.5z"/>
	</g>
	<g id="XMLID_52_" class="st8">
		<path id="XMLID_20_" class="st1" d="M47.2,13c1-0.6,2.2-0.2,2.7,0.7l0,0c0.5,1,0.2,2.2-0.7,2.7l-8.7,5c-1,0.6-2.2,0.2-2.7-0.7
			s-0.2-2.2,0.7-2.7L47.2,13z"/>
	</g>
	<g id="XMLID_49_" class="st9">
		<path id="XMLID_15_" class="st1" d="M15.4,18c1,0.5,1.3,1.8,0.7,2.7l0,0c-0.6,1-1.8,1.3-2.7,0.7l-8.7-5c-1-0.5-1.3-1.8-0.7-2.7
			s1.8-1.3,2.7-0.7L15.4,18z"/>
	</g>
	<g id="XMLID_46_" class="st10">
		<path id="XMLID_16_" class="st1" d="M49.2,37.5c1,0.5,1.3,1.8,0.7,2.7s-1.8,1.3-2.7,0.7l-8.7-5c-1-0.5-1.3-1.8-0.7-2.7
			s1.8-1.3,2.7-0.7L49.2,37.5z"/>
	</g>
	<g id="XMLID_43_" class="st11">
		<path id="XMLID_11_" class="st1" d="M18,38.6c0.5-1,1.8-1.3,2.7-0.7s1.3,1.8,0.7,2.7l-5,8.7c-0.5,1-1.8,1.3-2.7,0.7
			s-1.3-1.8-0.7-2.7L18,38.6z"/>
	</g>
	<g id="XMLID_40_" class="st12">
		<path id="XMLID_12_" class="st1" d="M37.5,4.8c0.5-1,1.8-1.3,2.7-0.7l0,0c1,0.6,1.3,1.8,0.7,2.7l-5,8.7c-0.5,1-1.8,1.3-2.7,0.7
			l0,0c-1-0.6-1.3-1.8-0.7-2.7L37.5,4.8z"/>
	</g>
</g>
</svg>
